<svg id="Layer_1" data-name="Layer 1" xmlns="http://www.w3.org/2000/svg" viewBox="0 0 52.3 52.3"><defs><style>.cls-1{fill:#f5f5f5;}</style></defs><path class="cls-1" d="M41.38,1.35c.76.21,1.54.28,2.3.5a13.08,13.08,0,0,1,9.44,13.42q0,.44-.09.87a.91.91,0,0,1-1,.9.86.86,0,0,1-.78-1,11.7,11.7,0,0,0-.9-6.18A11.35,11.35,0,0,0,39.05,3.16l-.61,0a.89.89,0,0,1-1-.82.91.91,0,0,1,.88-.93,1.62,1.62,0,0,1,.31,0c.2-.1.43,0,.63-.09Z" transform="translate(-0.85 -1.35)"/><path class="cls-1" d="M39.23,1.35a.82.82,0,0,1-.63.09.28.28,0,0,0,0-.09Z" transform="translate(-0.85 -1.35)"/><path class="cls-1" d="M49.66,14.39c0,.47-.06.86-.1,1.25a.91.91,0,0,1-.92.9.85.85,0,0,1-.81-1,8.32,8.32,0,0,0-.61-4.24,7.85,7.85,0,0,0-7.85-4.65,4.38,4.38,0,0,1-.51,0,.89.89,0,0,1-.94-.82.9.9,0,0,1,.8-.91,8.77,8.77,0,0,1,2.8,0,9.54,9.54,0,0,1,8,8C49.6,13.45,49.61,14,49.66,14.39Z" transform="translate(-0.85 -1.35)"/><path class="cls-1" d="M39.94,10.09l-.54,0a.87.87,0,1,1-.13-1.74A6,6,0,0,1,45,10.87a5.8,5.8,0,0,1,1.13,4.18c-.06.65-.41,1-.93,1s-.86-.48-.81-1.14a4.23,4.23,0,0,0-1.94-4.11A4,4,0,0,0,39.94,10.09Z" transform="translate(-0.85 -1.35)"/><path class="cls-1" d="M45.2,21.42q-6-6-12.08-12.06a4.34,4.34,0,0,0-6.42,0L2.82,33.19a6.45,6.45,0,0,0-1.77,3.27,10.27,10.27,0,0,0,.69,6.09,18.21,18.21,0,0,0,7.73,9,13.45,13.45,0,0,0,6.82,2.15,6.69,6.69,0,0,0,5.05-2Q33.28,39.78,45.21,27.86A4.33,4.33,0,0,0,45.2,21.42ZM44,26.62q-7.09,7.11-14.22,14.19c-3.15,3.15-6.33,6.29-9.47,9.46-1.14,1.16-2.49,1.67-4.85,1.63A11.82,11.82,0,0,1,10,49.77a16.14,16.14,0,0,1-6.89-8.69,7.84,7.84,0,0,1-.29-4.37A4.68,4.68,0,0,1,4,34.46L28,10.53a2.59,2.59,0,0,1,3.83,0q6.12,6.09,12.22,12.2A2.58,2.58,0,0,1,44,26.62Z" transform="translate(-0.85 -1.35)"/><path class="cls-1" d="M30.79,35.71c0,.4,0,.81,0,1.22a.85.85,0,0,1-.87.87.86.86,0,0,1-.86-.89,8.37,8.37,0,0,1,0-1.12c0-.34-.06-.49-.44-.45a8.37,8.37,0,0,1-1.12,0,.89.89,0,0,1-.92-.89.87.87,0,0,1,.95-.84h2.35a.85.85,0,0,1,.92.88v1.22Z" transform="translate(-0.85 -1.35)"/><path class="cls-1" d="M17,29.84H15.81a.86.86,0,0,1-1-.94q0-1.17,0-2.34a.82.82,0,0,1,.82-.91.86.86,0,0,1,.92.88,5.47,5.47,0,0,1,0,1.07c0,.44.13.55.54.51a9.73,9.73,0,0,1,1.08,0,.84.84,0,0,1,.88.85.87.87,0,0,1-.87.88H17Z" transform="translate(-0.85 -1.35)"/><path class="cls-1" d="M24.71,37.58c0-.39,0-.78,0-1.17a.89.89,0,0,1,.87-.93.87.87,0,0,1,.87.93c0,.4,0,.81,0,1.22,0,.25.07.33.32.32s.81,0,1.22,0a.86.86,0,0,1,.92.88.85.85,0,0,1-.94.86c-.78,0-1.56,0-2.34,0a.87.87,0,0,1-.92-.94C24.7,38.36,24.71,38,24.71,37.58Z" transform="translate(-0.85 -1.35)"/><path class="cls-1" d="M20.91,25.86c0,.41,0,.82,0,1.23a.87.87,0,1,1-1.73,0c0-.43,0-.85,0-1.28,0-.22-.06-.3-.29-.29q-.61,0-1.23,0a.87.87,0,0,1-.95-.85.86.86,0,0,1,1-.89c.77,0,1.53,0,2.3,0a.87.87,0,0,1,.95,1C20.92,25.11,20.91,25.49,20.91,25.86Z" transform="translate(-0.85 -1.35)"/><path class="cls-1" d="M11,38.23a.78.78,0,0,1-.46.74.75.75,0,0,1-.91-.07C8.75,38,7.86,37.14,7,36.23a.78.78,0,0,1,.09-1.11A.76.76,0,0,1,8.18,35c.92.86,1.79,1.77,2.68,2.66A.76.76,0,0,1,11,38.23Z" transform="translate(-0.85 -1.35)"/><path class="cls-1" d="M15.35,42.49a.88.88,0,0,1-.51.81.82.82,0,0,1-.91-.11c-.87-.86-1.74-1.72-2.59-2.6a.86.86,0,0,1,1.21-1.21c.88.84,1.74,1.72,2.6,2.59A.83.83,0,0,1,15.35,42.49Z" transform="translate(-0.85 -1.35)"/><path class="cls-1" d="M13.54,35.76a.86.86,0,0,1-.46.79.77.77,0,0,1-.95-.1c-.89-.86-1.77-1.74-2.63-2.63a.82.82,0,0,1,0-1.15.8.8,0,0,1,1.15-.08c.91.87,1.79,1.76,2.67,2.66A.7.7,0,0,1,13.54,35.76Z" transform="translate(-0.85 -1.35)"/><path class="cls-1" d="M17.85,40a.91.91,0,0,1-.49.89.74.74,0,0,1-.9-.11c-.9-.87-1.8-1.76-2.67-2.66A.84.84,0,0,1,13.87,37a.83.83,0,0,1,1.19,0c.43.39.83.81,1.23,1.22l1.23,1.22A.92.92,0,0,1,17.85,40Z" transform="translate(-0.85 -1.35)"/><path class="cls-1" d="M24.61,41.76a.93.93,0,0,1-.46.89.76.76,0,0,1-.91-.06c-.92-.88-1.83-1.78-2.71-2.69a.86.86,0,0,1,1.23-1.18c.89.86,1.76,1.74,2.64,2.62A.73.73,0,0,1,24.61,41.76Z" transform="translate(-0.85 -1.35)"/><path class="cls-1" d="M16.35,43.5a.89.89,0,0,1,.68.32l2.36,2.33a.87.87,0,1,1-1.22,1.24c-.81-.78-1.61-1.57-2.41-2.36a.88.88,0,0,1-.22-1A.82.82,0,0,1,16.35,43.5Z" transform="translate(-0.85 -1.35)"/><path class="cls-1" d="M16,33.26a.85.85,0,0,1-.47.83.83.83,0,0,1-1-.11c-.86-.85-1.72-1.7-2.56-2.57a.81.81,0,0,1,.05-1.18.83.83,0,0,1,1.2,0c.84.81,1.66,1.65,2.49,2.48A.76.76,0,0,1,16,33.26Z" transform="translate(-0.85 -1.35)"/><path class="cls-1" d="M22.13,44.42a.81.81,0,0,1-.48.71.76.76,0,0,1-.91-.09c-.89-.86-1.77-1.74-2.62-2.63a.81.81,0,0,1,.05-1.11.82.82,0,0,1,1.15-.09c.9.86,1.76,1.75,2.63,2.63A.74.74,0,0,1,22.13,44.42Z" transform="translate(-0.85 -1.35)"/><path class="cls-1" d="M20.29,37.63a.83.83,0,0,1-.48.72.72.72,0,0,1-.86-.07c-.89-.86-1.78-1.74-2.64-2.63a.8.8,0,0,1,.09-1.15.79.79,0,0,1,1.11,0c.89.86,1.76,1.76,2.62,2.65A.7.7,0,0,1,20.29,37.63Z" transform="translate(-0.85 -1.35)"/><path class="cls-1" d="M29.32,18.29a7,7,0,1,0,6.94,7A7,7,0,0,0,29.32,18.29Zm0,12.18a5.22,5.22,0,1,1,5.25-5.18A5.2,5.2,0,0,1,29.28,30.47Z" transform="translate(-0.85 -1.35)"/><path class="cls-1" d="M39.83,22.06a2.56,2.56,0,0,0-2.65,2.58,2.62,2.62,0,0,0,5.23,0A2.57,2.57,0,0,0,39.83,22.06Zm-.07,3.42a.85.85,0,0,1-.84-.85.87.87,0,1,1,1.74,0A.85.85,0,0,1,39.76,25.48Z" transform="translate(-0.85 -1.35)"/><path class="cls-1" d="M29.91,12.17a2.61,2.61,0,1,0,2.62,2.64A2.62,2.62,0,0,0,29.91,12.17Zm0,3.54a.87.87,0,0,1-.87-.88.94.94,0,0,1,.91-.91.86.86,0,0,1,.87.87A1,1,0,0,1,29.87,15.71Z" transform="translate(-0.85 -1.35)"/><path class="cls-1" d="M29.31,21.77a3.48,3.48,0,1,0,3.47,3.48A3.48,3.48,0,0,0,29.31,21.77Zm0,5.21A1.74,1.74,0,1,1,31,25.28,1.75,1.75,0,0,1,29.29,27Z" transform="translate(-0.85 -1.35)"/></svg>