<?xml version="1.0" encoding="utf-8"?>
<!-- Generator: Adobe Illustrator 25.3.1, SVG Export Plug-In . SVG Version: 6.00 Build 0)  -->
<svg version="1.1" id="Layer_1" xmlns="http://www.w3.org/2000/svg" xmlns:xlink="http://www.w3.org/1999/xlink" x="0px" y="0px"
	 viewBox="0 0 44 55" style="enable-background:new 0 0 44 55;" xml:space="preserve">
<style type="text/css">
	.st0{fill:#F5F5F5;}
</style>
<g>
	<path class="st0" d="M28.87,9.79c2.57-0.01,5.15-0.01,7.72,0c0.29,0,0.42-0.04,0.4-0.38c-0.03-0.49-0.03-0.98,0-1.46
		c0.02-0.32-0.09-0.39-0.39-0.39c-1.28,0.02-2.56,0.01-3.83,0.01c-1.29,0-2.59,0.01-3.88-0.01c-0.31,0-0.46,0.05-0.43,0.4
		c0.03,0.47,0.03,0.94,0,1.41C28.43,9.73,28.56,9.79,28.87,9.79"/>
	<path class="st0" d="M36.99,17.53c0.01-0.24-0.03-0.36-0.32-0.36c-2.62,0.01-5.24,0.01-7.87,0c-0.26,0-0.36,0.07-0.35,0.34
		c0.02,0.49,0.02,0.98,0,1.46c-0.02,0.32,0.06,0.43,0.41,0.42c1.29-0.02,2.59-0.01,3.88-0.01c1.29,0,2.59-0.01,3.88,0.01
		c0.27,0,0.39-0.05,0.37-0.35C36.97,18.54,36.98,18.04,36.99,17.53"/>
	<path class="st0" d="M36.99,27.13c0.01-0.26-0.07-0.35-0.34-0.35c-2.63,0.01-5.25,0.01-7.88,0c-0.24,0-0.33,0.07-0.32,0.31
		c0.01,0.5,0.03,1.01,0,1.51c-0.02,0.32,0.09,0.39,0.4,0.38c1.28-0.02,2.56-0.01,3.84-0.01c1.31,0,2.63-0.01,3.94,0.01
		c0.27,0,0.39-0.05,0.37-0.35C36.97,28.14,36.97,27.64,36.99,27.13"/>
	<path class="st0" d="M28.86,14.6c0.69-0.02,1.38-0.01,2.06-0.01c0.69,0,1.38-0.01,2.07,0.01c0.31,0.01,0.46-0.05,0.44-0.41
		c-0.03-0.47-0.03-0.94,0-1.41c0.02-0.3-0.07-0.41-0.39-0.4c-0.94,0.02-1.88,0-2.82,0.01c-0.57,0-1.14,0.02-1.7,0.03
		c-0.12,0.59-0.01,1.2-0.06,1.79C28.42,14.55,28.57,14.61,28.86,14.6"/>
	<path class="st0" d="M33.02,21.99C32.33,22.01,31.64,22,30.95,22c-0.71,0-1.41,0.02-2.12-0.01c-0.32-0.01-0.4,0.1-0.38,0.4
		c0.02,0.49,0.02,0.98,0,1.46c-0.01,0.3,0.1,0.37,0.38,0.36c1.4-0.01,2.79-0.01,4.19,0c0.29,0,0.43-0.05,0.41-0.38
		c-0.03-0.49-0.03-0.98,0-1.46C33.45,22.03,33.31,21.99,33.02,21.99"/>
	<path class="st0" d="M24.63,32.18c-0.3-0.19-0.38-0.4-0.38-0.73c0.01-8.11,0.01-16.23,0.01-24.34c0-0.3,0-0.61-0.02-0.91
		c-0.13-2.54-2.34-4.89-4.82-5.12C19.26,1,19.06,1.12,18.89,1h-1.01c-0.51,0.19-1.06,0.25-1.56,0.49c-2.27,1.12-3.36,2.96-3.36,5.46
		c0,8.16,0,16.33,0.01,24.49c0,0.36-0.1,0.56-0.41,0.77c-3.78,2.59-5.52,6.18-4.99,10.73c0.74,6.36,6.72,10.71,13,9.59
		c4.54-0.81,8.13-4.34,9-8.84C30.45,39.2,28.51,34.65,24.63,32.18 M19.46,50.48c-4.44,0.41-8.61-2.59-9.55-6.9
		c-0.91-4.13,0.96-8.1,4.77-10.04c0.38-0.2,0.51-0.4,0.51-0.83c-0.02-8.62-0.01-17.24-0.01-25.85c0-1.83,1.04-3.19,2.72-3.58
		c2-0.46,4.03,1.02,4.14,3.07c0.06,1.18,0.03,2.36,0.03,3.53c0,3.25,0,6.5,0,9.75c0,4.34,0.01,8.68-0.01,13.03
		c0,0.45,0.13,0.67,0.53,0.88c3.33,1.77,5.04,4.56,4.99,8.34C27.5,46.3,23.9,50.07,19.46,50.48"/>
	<path class="st0" d="M20.49,34.72c-0.35-0.11-0.47-0.25-0.46-0.62c0.02-2.1,0.01-4.21,0.01-6.31c0-2.14-0.01-4.27,0.01-6.41
		c0-0.3-0.05-0.41-0.38-0.4c-0.66,0.03-1.31,0.04-1.97,0c-0.43-0.03-0.52,0.11-0.52,0.53c0.02,4.16,0,8.31,0.02,12.47
		c0,0.46-0.11,0.64-0.58,0.78c-2.89,0.84-4.98,3.46-5.11,6.33c-0.2,4.68,3.61,8.14,8.24,7.49c3.53-0.49,6.3-3.99,5.96-7.52
		C25.42,37.93,23.52,35.62,20.49,34.72 M17.91,38.51c-1.47,0.45-2.27,1.41-2.37,2.96c-0.05,0.89-0.71,1.49-1.5,1.43
		c-0.85-0.06-1.36-0.72-1.32-1.7c0.09-2.58,1.93-4.83,4.42-5.43c0.85-0.21,1.61,0.21,1.83,0.99C19.17,37.52,18.73,38.25,17.91,38.51
		"/>
</g>
</svg>
