<svg id="Layer_1" data-name="Layer 1" xmlns="http://www.w3.org/2000/svg" viewBox="0 0 33.91 51.79"><defs><style>.cls-1{fill:#f5f5f5;}</style></defs><path class="cls-1" d="M39,6.66A16.4,16.4,0,0,0,27,1.61,16.29,16.29,0,0,0,16.48,5.29a16.39,16.39,0,0,0-6.38,12A16.67,16.67,0,0,0,15.43,31a7.15,7.15,0,0,1,1.63,2.29,14.79,14.79,0,0,1,1.1,6.16c0,1.13.3,1.46,1.44,1.46H34.43c1,0,1.34-.35,1.37-1.35v-.52a11.89,11.89,0,0,1,3.59-9,15.06,15.06,0,0,0,4.46-9.62A16.45,16.45,0,0,0,39,6.66ZM38,28.49a18.6,18.6,0,0,0-2.54,3.06,14.84,14.84,0,0,0-1.69,6.35c-.06.9,0,.9-1,.9H27c-2,0-4,0-5.93,0-.69,0-.87-.21-.88-.84a14.9,14.9,0,0,0-1.27-5.61,8.51,8.51,0,0,0-1.95-2.85,14.52,14.52,0,0,1-4.75-9.17A14.2,14.2,0,0,1,15.65,8.82,14.5,14.5,0,0,1,32.37,4.68a14.15,14.15,0,0,1,9.26,11.58A14.38,14.38,0,0,1,38,28.49Z" transform="translate(-10.05 -1.61)"/><path class="cls-1" d="M36.24,44.31a2.63,2.63,0,0,0-2.85-2.23H20.5a3.69,3.69,0,0,0-1.14.15,2.55,2.55,0,0,0-1.72,2.83,2.51,2.51,0,0,0,2.45,2.14c2.25,0,4.51,0,6.76,0h0c2.23,0,4.47,0,6.7,0A2.58,2.58,0,0,0,36.24,44.31Zm-2.53.77a3.38,3.38,0,0,1-.45,0H20.63a4.52,4.52,0,0,1-.52,0,.45.45,0,0,1-.41-.55c0-.29.21-.4.48-.41h13a4.34,4.34,0,0,1,.51,0,.47.47,0,0,1,.43.49A.44.44,0,0,1,33.71,45.08Z" transform="translate(-10.05 -1.61)"/><path class="cls-1" d="M31.51,48.25H22.37a2.58,2.58,0,1,0,0,5.14h9.08a2.63,2.63,0,0,0,2.82-2.54A2.59,2.59,0,0,0,31.51,48.25Zm-.06,3h-9c-.37,0-.75,0-.75-.5s.39-.47.75-.47h9c.35,0,.7,0,.72.45S31.82,51.25,31.45,51.25Z" transform="translate(-10.05 -1.61)"/><path class="cls-1" d="M40.11,18.5c0,.19,0,.38,0,.58a1,1,0,0,1-2,.13c-.09-.53,0-1.07-.13-1.6A11.1,11.1,0,0,0,27.37,8L27,8A1,1,0,1,1,27,5.94a13.83,13.83,0,0,1,3.62.52A13.15,13.15,0,0,1,40.11,18.5Z" transform="translate(-10.05 -1.61)"/></svg>