<svg id="Layer_1" data-name="Layer 1" xmlns="http://www.w3.org/2000/svg" viewBox="0 0 34.43 48.99"><defs><style>.cls-1{fill:#f4f4f5;}</style></defs><path class="cls-1" d="M40.52,21.78,26.75,3,14.17,21.66c-1.66,2.1-5.31,7.66-4.16,14.82C11.21,44,17.79,51.88,26.72,52h.21c9.18,0,15.6-8,17-15.55C45.19,29.55,42,23.91,40.52,21.78ZM41.62,36c-1.25,6.77-7.16,13.71-14.87,13.62s-13.38-7-14.43-13.54,2.58-11.6,3.71-13l10.8-16,11.78,16C39.88,25,42.73,30,41.62,36Z" transform="translate(-9.79 -3)"/><path class="cls-1" d="M33,38.54a10.47,10.47,0,0,1-4.13,3.66l1,2.1A12.77,12.77,0,0,0,37,33.75l-2.34-.17A10.5,10.5,0,0,1,33,38.54Z" transform="translate(-9.79 -3)"/></svg>