<svg id="Layer_1" data-name="Layer 1" xmlns="http://www.w3.org/2000/svg" viewBox="0 0 44.41 51.75"><defs><style>.cls-1,.cls-3{fill:none;stroke:#f5f5f5;stroke-miterlimit:10;}.cls-1{stroke-width:1.96px;}.cls-2{fill:#f5f5f5;}.cls-3{stroke-width:0.98px;}</style></defs><rect class="cls-1" x="12.71" y="22.04" width="18.99" height="14.45" rx="2.73"/><path class="cls-2" d="M27,52.87a20.92,20.92,0,0,1-15.48-7.21A25.15,25.15,0,0,1,5.3,28.06v-18l22.37-8L48.5,10.94l.2,17.13a24.94,24.94,0,0,1-6,17.37,20.66,20.66,0,0,1-15.38,7.42ZM7.22,11.6V28.13a22.7,22.7,0,0,0,5.7,16.09,19,19,0,0,0,14.35,6.57,18.93,18.93,0,0,0,14-6.77,22.72,22.72,0,0,0,5.5-15.89l-.17-15.76-19-8Z" transform="translate(-4.79 -1.61)"/><path class="cls-3" d="M27,52.87a20.92,20.92,0,0,1-15.48-7.21A25.15,25.15,0,0,1,5.3,28.06v-18l22.37-8L48.5,10.94l.2,17.13a24.94,24.94,0,0,1-6,17.37,20.66,20.66,0,0,1-15.38,7.42ZM7.22,11.6V28.13a22.7,22.7,0,0,0,5.7,16.09,19,19,0,0,0,14.35,6.57,18.93,18.93,0,0,0,14-6.77,22.72,22.72,0,0,0,5.5-15.89l-.17-15.76-19-8Z" transform="translate(-4.79 -1.61)"/><path class="cls-2" d="M24.65,35.54h4.7s-1.27-5.07-1.28-5.13a2.21,2.21,0,1,0-2.13,0h0Z" transform="translate(-4.79 -1.61)"/><path class="cls-1" d="M32.5,22.87c0-.54,0-2.79,0-3.24h0a5.5,5.5,0,0,0-11,0h0v3.24" transform="translate(-4.79 -1.61)"/></svg>